<?xml version="1.0" encoding="us-ascii" standalone="no"?><svg xmlns="http://www.w3.org/2000/svg" xmlns:xlink="http://www.w3.org/1999/xlink" contentStyleType="text/css" height="649px" preserveAspectRatio="none" style="width:1033px;height:649px;background:#FFFFFF;" version="1.1" viewBox="0 0 1033 649" width="1033px" zoomAndPan="magnify"><defs/><g><!--class Shape--><g id="elem_Shape"><rect codeLine="1" fill="#F1F1F1" height="80.5938" id="Shape" rx="2.5" ry="2.5" style="stroke:#181818;stroke-width:0.5;" width="324" x="582.5" y="436"/><ellipse cx="717.75" cy="452" fill="#A9DCDF" rx="11" ry="11" style="stroke:#181818;stroke-width:1.0;"/><path d="M719.8281,453.8125 L720.2188,454.7969 L719.8281,454.7969 C719.375,454.7969 719.2656,454.8125 719.1094,454.9219 C718.8594,455.0781 718.7031,455.3594 718.7031,455.6563 C718.7031,455.9219 718.8438,456.1719 719.0625,456.3281 C719.2031,456.4531 719.4063,456.5 719.8281,456.5 L722.1875,456.5 C722.5469,456.5 722.7656,456.4688 722.9063,456.375 C723.1563,456.2344 723.3125,455.9375 723.3125,455.6563 C723.3125,455.375 723.1719,455.125 722.9531,454.9688 C722.7813,454.8281 722.625,454.7969 722.1563,454.7969 L718.7656,446.5938 L715.0938,446.5938 C714.6406,446.5938 714.5156,446.6094 714.3594,446.7031 C714.1094,446.875 713.9531,447.1563 713.9531,447.4375 C713.9531,447.7188 714.0938,447.9688 714.3125,448.1406 C714.4844,448.25 714.6563,448.2813 715.0938,448.2813 L716.1719,448.2813 L713.5313,454.7969 C713.1094,454.7969 712.9531,454.8125 712.7969,454.9219 C712.5469,455.0781 712.3906,455.3594 712.3906,455.6563 C712.3906,456.2188 712.7656,456.5 713.5156,456.5 L715.7813,456.5 C716.1406,456.5 716.3594,456.4688 716.4844,456.375 C716.75,456.2344 716.8906,455.9375 716.8906,455.6563 C716.8906,455.375 716.7656,455.125 716.5469,454.9531 C716.375,454.8281 716.2344,454.7969 715.7813,454.7969 L715.3906,454.7969 L715.7813,453.8125 L719.8281,453.8125 Z M719.125,452.1094 L716.4531,452.1094 L717.7969,448.8438 L719.125,452.1094 Z " fill="#000000"/><text fill="#000000" font-family="sans-serif" font-size="14" font-style="italic" lengthAdjust="spacing" textLength="45" x="738.25" y="456.8467">Shape</text><line style="stroke:#181818;stroke-width:0.5;" x1="583.5" x2="905.5" y1="468" y2="468"/><line style="stroke:#181818;stroke-width:0.5;" x1="583.5" x2="905.5" y1="476" y2="476"/><ellipse cx="593.5" cy="489.6484" fill="#84BE84" rx="3" ry="3" style="stroke:#038048;stroke-width:1.0;"/><text fill="#000000" font-family="sans-serif" font-size="14" lengthAdjust="spacing" textLength="229" x="602.5" y="492.9951">Shape(const std::string &amp;name)</text><ellipse cx="593.5" cy="505.9453" fill="#84BE84" rx="3" ry="3" style="stroke:#038048;stroke-width:1.0;"/><text fill="#000000" font-family="sans-serif" font-size="14" lengthAdjust="spacing" textLength="298" x="602.5" y="509.292">setName(const std::string &amp;name_) : void</text></g><!--class Rectangle--><g id="elem_Rectangle"><rect codeLine="6" fill="#F1F1F1" height="64.2969" id="Rectangle" rx="2.5" ry="2.5" style="stroke:#181818;stroke-width:0.5;" width="283" x="451" y="578"/><ellipse cx="551.75" cy="594" fill="#ADD1B2" rx="11" ry="11" style="stroke:#181818;stroke-width:1.0;"/><path d="M554.0938,589.6719 C553.1563,589.2344 552.5625,589.0938 551.6875,589.0938 C549.0625,589.0938 547.0625,591.1719 547.0625,593.8906 L547.0625,595.0156 C547.0625,597.5938 549.1719,599.4844 552.0625,599.4844 C553.2813,599.4844 554.4375,599.1875 555.1875,598.6406 C555.7656,598.2344 556.0938,597.7813 556.0938,597.3906 C556.0938,596.9375 555.7031,596.5469 555.2344,596.5469 C555.0156,596.5469 554.8125,596.625 554.625,596.8125 C554.1719,597.2969 554.1719,597.2969 553.9844,597.3906 C553.5625,597.6563 552.875,597.7813 552.1094,597.7813 C550.0625,597.7813 548.7656,596.6875 548.7656,594.9844 L548.7656,593.8906 C548.7656,592.1094 550.0156,590.7969 551.75,590.7969 C552.3281,590.7969 552.9375,590.9531 553.4063,591.2031 C553.8906,591.4844 554.0625,591.7031 554.1563,592.1094 C554.2188,592.5156 554.25,592.6406 554.3906,592.7656 C554.5313,592.9063 554.7656,593.0156 554.9844,593.0156 C555.25,593.0156 555.5156,592.875 555.6875,592.6563 C555.7969,592.5 555.8281,592.3125 555.8281,591.8906 L555.8281,590.4688 C555.8281,590.0313 555.8125,589.9063 555.7188,589.75 C555.5625,589.4844 555.2813,589.3438 554.9844,589.3438 C554.6875,589.3438 554.4844,589.4375 554.2656,589.75 L554.0938,589.6719 Z " fill="#000000"/><text fill="#000000" font-family="sans-serif" font-size="14" lengthAdjust="spacing" textLength="73" x="572.25" y="598.8467">Rectangle</text><line style="stroke:#181818;stroke-width:0.5;" x1="452" x2="733" y1="610" y2="610"/><line style="stroke:#181818;stroke-width:0.5;" x1="452" x2="733" y1="618" y2="618"/><ellipse cx="462" cy="631.6484" fill="#84BE84" rx="3" ry="3" style="stroke:#038048;stroke-width:1.0;"/><text fill="#000000" font-family="sans-serif" font-size="14" lengthAdjust="spacing" textLength="257" x="471" y="634.9951">Rectangle(const std::string &amp;name)</text></g><!--class Ellipse--><g id="elem_Ellipse"><rect codeLine="11" fill="#F1F1F1" height="64.2969" id="Ellipse" rx="2.5" ry="2.5" style="stroke:#181818;stroke-width:0.5;" width="257" x="769" y="578"/><ellipse cx="869.75" cy="594" fill="#ADD1B2" rx="11" ry="11" style="stroke:#181818;stroke-width:1.0;"/><path d="M872.0938,589.6719 C871.1563,589.2344 870.5625,589.0938 869.6875,589.0938 C867.0625,589.0938 865.0625,591.1719 865.0625,593.8906 L865.0625,595.0156 C865.0625,597.5938 867.1719,599.4844 870.0625,599.4844 C871.2813,599.4844 872.4375,599.1875 873.1875,598.6406 C873.7656,598.2344 874.0938,597.7813 874.0938,597.3906 C874.0938,596.9375 873.7031,596.5469 873.2344,596.5469 C873.0156,596.5469 872.8125,596.625 872.625,596.8125 C872.1719,597.2969 872.1719,597.2969 871.9844,597.3906 C871.5625,597.6563 870.875,597.7813 870.1094,597.7813 C868.0625,597.7813 866.7656,596.6875 866.7656,594.9844 L866.7656,593.8906 C866.7656,592.1094 868.0156,590.7969 869.75,590.7969 C870.3281,590.7969 870.9375,590.9531 871.4063,591.2031 C871.8906,591.4844 872.0625,591.7031 872.1563,592.1094 C872.2188,592.5156 872.25,592.6406 872.3906,592.7656 C872.5313,592.9063 872.7656,593.0156 872.9844,593.0156 C873.25,593.0156 873.5156,592.875 873.6875,592.6563 C873.7969,592.5 873.8281,592.3125 873.8281,591.8906 L873.8281,590.4688 C873.8281,590.0313 873.8125,589.9063 873.7188,589.75 C873.5625,589.4844 873.2813,589.3438 872.9844,589.3438 C872.6875,589.3438 872.4844,589.4375 872.2656,589.75 L872.0938,589.6719 Z " fill="#000000"/><text fill="#000000" font-family="sans-serif" font-size="14" lengthAdjust="spacing" textLength="47" x="890.25" y="598.8467">Ellipse</text><line style="stroke:#181818;stroke-width:0.5;" x1="770" x2="1025" y1="610" y2="610"/><line style="stroke:#181818;stroke-width:0.5;" x1="770" x2="1025" y1="618" y2="618"/><ellipse cx="780" cy="631.6484" fill="#84BE84" rx="3" ry="3" style="stroke:#038048;stroke-width:1.0;"/><text fill="#000000" font-family="sans-serif" font-size="14" lengthAdjust="spacing" textLength="231" x="789" y="634.9951">Ellipse(const std::string &amp;name)</text></g><!--class Document--><g id="elem_Document"><rect codeLine="16" fill="#F1F1F1" height="113.1875" id="Document" rx="2.5" ry="2.5" style="stroke:#181818;stroke-width:0.5;" width="559" x="465" y="254"/><ellipse cx="702.75" cy="270" fill="#ADD1B2" rx="11" ry="11" style="stroke:#181818;stroke-width:1.0;"/><path d="M705.0938,265.6719 C704.1563,265.2344 703.5625,265.0938 702.6875,265.0938 C700.0625,265.0938 698.0625,267.1719 698.0625,269.8906 L698.0625,271.0156 C698.0625,273.5938 700.1719,275.4844 703.0625,275.4844 C704.2813,275.4844 705.4375,275.1875 706.1875,274.6406 C706.7656,274.2344 707.0938,273.7813 707.0938,273.3906 C707.0938,272.9375 706.7031,272.5469 706.2344,272.5469 C706.0156,272.5469 705.8125,272.625 705.625,272.8125 C705.1719,273.2969 705.1719,273.2969 704.9844,273.3906 C704.5625,273.6563 703.875,273.7813 703.1094,273.7813 C701.0625,273.7813 699.7656,272.6875 699.7656,270.9844 L699.7656,269.8906 C699.7656,268.1094 701.0156,266.7969 702.75,266.7969 C703.3281,266.7969 703.9375,266.9531 704.4063,267.2031 C704.8906,267.4844 705.0625,267.7031 705.1563,268.1094 C705.2188,268.5156 705.25,268.6406 705.3906,268.7656 C705.5313,268.9063 705.7656,269.0156 705.9844,269.0156 C706.25,269.0156 706.5156,268.875 706.6875,268.6563 C706.7969,268.5 706.8281,268.3125 706.8281,267.8906 L706.8281,266.4688 C706.8281,266.0313 706.8125,265.9063 706.7188,265.75 C706.5625,265.4844 706.2813,265.3438 705.9844,265.3438 C705.6875,265.3438 705.4844,265.4375 705.2656,265.75 L705.0938,265.6719 Z " fill="#000000"/><text fill="#000000" font-family="sans-serif" font-size="14" lengthAdjust="spacing" textLength="75" x="723.25" y="274.8467">Document</text><line style="stroke:#181818;stroke-width:0.5;" x1="466" x2="1023" y1="286" y2="286"/><line style="stroke:#181818;stroke-width:0.5;" x1="466" x2="1023" y1="294" y2="294"/><ellipse cx="476" cy="307.6484" fill="#84BE84" rx="3" ry="3" style="stroke:#038048;stroke-width:1.0;"/><text fill="#000000" font-family="sans-serif" font-size="14" lengthAdjust="spacing" textLength="298" x="485" y="310.9951">setName(const std::string &amp;name_) : void</text><ellipse cx="476" cy="323.9453" fill="#84BE84" rx="3" ry="3" style="stroke:#038048;stroke-width:1.0;"/><text fill="#000000" font-family="sans-serif" font-size="14" lengthAdjust="spacing" textLength="400" x="485" y="327.292">addShape(const std::shared_ptr&lt;Shape&gt;&amp; shape): void</text><ellipse cx="476" cy="340.2422" fill="#84BE84" rx="3" ry="3" style="stroke:#038048;stroke-width:1.0;"/><text fill="#000000" font-family="sans-serif" font-size="14" lengthAdjust="spacing" textLength="421" x="485" y="343.5889">deleteShape(const std::shared_ptr&lt;Shape&gt;&amp; shape): void</text><ellipse cx="476" cy="356.5391" fill="#84BE84" rx="3" ry="3" style="stroke:#038048;stroke-width:1.0;"/><text fill="#000000" font-family="sans-serif" font-size="14" lengthAdjust="spacing" textLength="533" x="485" y="359.8857">selectShape(double positionX, double positionY):std::shared_ptr&lt;Shape&gt;</text></g><!--class Tools--><g id="elem_Tools"><rect codeLine="23" fill="#F1F1F1" height="162.0781" id="Tools" rx="2.5" ry="2.5" style="stroke:#181818;stroke-width:0.5;" width="316" x="368.5" y="7"/><ellipse cx="503.25" cy="23" fill="#ADD1B2" rx="11" ry="11" style="stroke:#181818;stroke-width:1.0;"/><path d="M505.5938,18.6719 C504.6563,18.2344 504.0625,18.0938 503.1875,18.0938 C500.5625,18.0938 498.5625,20.1719 498.5625,22.8906 L498.5625,24.0156 C498.5625,26.5938 500.6719,28.4844 503.5625,28.4844 C504.7813,28.4844 505.9375,28.1875 506.6875,27.6406 C507.2656,27.2344 507.5938,26.7813 507.5938,26.3906 C507.5938,25.9375 507.2031,25.5469 506.7344,25.5469 C506.5156,25.5469 506.3125,25.625 506.125,25.8125 C505.6719,26.2969 505.6719,26.2969 505.4844,26.3906 C505.0625,26.6563 504.375,26.7813 503.6094,26.7813 C501.5625,26.7813 500.2656,25.6875 500.2656,23.9844 L500.2656,22.8906 C500.2656,21.1094 501.5156,19.7969 503.25,19.7969 C503.8281,19.7969 504.4375,19.9531 504.9063,20.2031 C505.3906,20.4844 505.5625,20.7031 505.6563,21.1094 C505.7188,21.5156 505.75,21.6406 505.8906,21.7656 C506.0313,21.9063 506.2656,22.0156 506.4844,22.0156 C506.75,22.0156 507.0156,21.875 507.1875,21.6563 C507.2969,21.5 507.3281,21.3125 507.3281,20.8906 L507.3281,19.4688 C507.3281,19.0313 507.3125,18.9063 507.2188,18.75 C507.0625,18.4844 506.7813,18.3438 506.4844,18.3438 C506.1875,18.3438 505.9844,18.4375 505.7656,18.75 L505.5938,18.6719 Z " fill="#000000"/><text fill="#000000" font-family="sans-serif" font-size="14" lengthAdjust="spacing" textLength="38" x="523.75" y="27.8467">Tools</text><line style="stroke:#181818;stroke-width:0.5;" x1="369.5" x2="683.5" y1="39" y2="39"/><rect fill="none" height="6" style="stroke:#C82930;stroke-width:1.0;" width="6" x="376.5" y="49.6484"/><text fill="#000000" font-family="sans-serif" font-size="14" lengthAdjust="spacing" textLength="289" x="388.5" y="55.9951">std::shared_ptr&lt;Shape&gt; selectedShape</text><rect fill="none" height="6" style="stroke:#C82930;stroke-width:1.0;" width="6" x="376.5" y="65.9453"/><text fill="#000000" font-family="sans-serif" font-size="14" lengthAdjust="spacing" textLength="290" x="388.5" y="72.292">std::shared_ptr&lt;Document&gt; document;</text><line style="stroke:#181818;stroke-width:0.5;" x1="369.5" x2="683.5" y1="79.5938" y2="79.5938"/><ellipse cx="379.5" cy="93.2422" fill="#84BE84" rx="3" ry="3" style="stroke:#038048;stroke-width:1.0;"/><text fill="#000000" font-family="sans-serif" font-size="14" lengthAdjust="spacing" textLength="270" x="388.5" y="96.5889">Tools(std::shared_ptr&lt;Document&gt; p)</text><ellipse cx="379.5" cy="109.5391" fill="#84BE84" rx="3" ry="3" style="stroke:#038048;stroke-width:1.0;"/><text fill="#000000" font-family="sans-serif" font-size="14" lengthAdjust="spacing" textLength="143" x="388.5" y="112.8857">createEllipse(): void</text><ellipse cx="379.5" cy="125.8359" fill="#84BE84" rx="3" ry="3" style="stroke:#038048;stroke-width:1.0;"/><text fill="#000000" font-family="sans-serif" font-size="14" lengthAdjust="spacing" textLength="169" x="388.5" y="129.1826">createRectangle(): void</text><ellipse cx="379.5" cy="142.1328" fill="#84BE84" rx="3" ry="3" style="stroke:#038048;stroke-width:1.0;"/><text fill="#000000" font-family="sans-serif" font-size="14" lengthAdjust="spacing" textLength="138" x="388.5" y="145.4795">selectShape(): void</text><ellipse cx="379.5" cy="158.4297" fill="#84BE84" rx="3" ry="3" style="stroke:#038048;stroke-width:1.0;"/><text fill="#000000" font-family="sans-serif" font-size="14" lengthAdjust="spacing" textLength="205" x="388.5" y="161.7764">deleteSelectedShape(): void</text></g><!--class DocCtrl--><g id="elem_DocCtrl"><rect codeLine="34" fill="#F1F1F1" height="129.4844" id="DocCtrl" rx="2.5" ry="2.5" style="stroke:#181818;stroke-width:0.5;" width="355" x="7" y="246"/><ellipse cx="152.75" cy="262" fill="#ADD1B2" rx="11" ry="11" style="stroke:#181818;stroke-width:1.0;"/><path d="M155.0938,257.6719 C154.1563,257.2344 153.5625,257.0938 152.6875,257.0938 C150.0625,257.0938 148.0625,259.1719 148.0625,261.8906 L148.0625,263.0156 C148.0625,265.5938 150.1719,267.4844 153.0625,267.4844 C154.2813,267.4844 155.4375,267.1875 156.1875,266.6406 C156.7656,266.2344 157.0938,265.7813 157.0938,265.3906 C157.0938,264.9375 156.7031,264.5469 156.2344,264.5469 C156.0156,264.5469 155.8125,264.625 155.625,264.8125 C155.1719,265.2969 155.1719,265.2969 154.9844,265.3906 C154.5625,265.6563 153.875,265.7813 153.1094,265.7813 C151.0625,265.7813 149.7656,264.6875 149.7656,262.9844 L149.7656,261.8906 C149.7656,260.1094 151.0156,258.7969 152.75,258.7969 C153.3281,258.7969 153.9375,258.9531 154.4063,259.2031 C154.8906,259.4844 155.0625,259.7031 155.1563,260.1094 C155.2188,260.5156 155.25,260.6406 155.3906,260.7656 C155.5313,260.9063 155.7656,261.0156 155.9844,261.0156 C156.25,261.0156 156.5156,260.875 156.6875,260.6563 C156.7969,260.5 156.8281,260.3125 156.8281,259.8906 L156.8281,258.4688 C156.8281,258.0313 156.8125,257.9063 156.7188,257.75 C156.5625,257.4844 156.2813,257.3438 155.9844,257.3438 C155.6875,257.3438 155.4844,257.4375 155.2656,257.75 L155.0938,257.6719 Z " fill="#000000"/><text fill="#000000" font-family="sans-serif" font-size="14" lengthAdjust="spacing" textLength="55" x="173.25" y="266.8467">DocCtrl</text><line style="stroke:#181818;stroke-width:0.5;" x1="8" x2="361" y1="278" y2="278"/><rect fill="none" height="6" style="stroke:#C82930;stroke-width:1.0;" width="6" x="15" y="288.6484"/><text fill="#000000" font-family="sans-serif" font-size="14" lengthAdjust="spacing" textLength="244" x="27" y="294.9951">std::shared_ptr&lt;Document&gt; data</text><rect fill="none" height="6" style="stroke:#C82930;stroke-width:1.0;" width="6" x="15" y="304.9453"/><text fill="#000000" font-family="sans-serif" font-size="14" lengthAdjust="spacing" textLength="210" x="27" y="311.292">std::unique_ptr&lt;Tools&gt; tools</text><line style="stroke:#181818;stroke-width:0.5;" x1="8" x2="361" y1="318.5938" y2="318.5938"/><ellipse cx="18" cy="332.2422" fill="#84BE84" rx="3" ry="3" style="stroke:#038048;stroke-width:1.0;"/><text fill="#000000" font-family="sans-serif" font-size="14" lengthAdjust="spacing" textLength="294" x="27" y="335.5889">createDoc(const std::string&amp; name):void</text><ellipse cx="18" cy="348.5391" fill="#84BE84" rx="3" ry="3" style="stroke:#038048;stroke-width:1.0;"/><text fill="#000000" font-family="sans-serif" font-size="14" lengthAdjust="spacing" textLength="309" x="27" y="351.8857">exportToFile(const std::string&amp; path): void</text><ellipse cx="18" cy="364.8359" fill="#84BE84" rx="3" ry="3" style="stroke:#038048;stroke-width:1.0;"/><text fill="#000000" font-family="sans-serif" font-size="14" lengthAdjust="spacing" textLength="329" x="27" y="368.1826">importFromFile(const std::string&amp; path): void</text></g><!--reverse link Shape to Rectangle--><g id="link_Shape_Rectangle"><path codeLine="43" d="M683.312,530.435 C664.789,546.4601 645.045,563.5412 628.715,577.6695 " fill="none" id="Shape-backto-Rectangle" style="stroke:#181818;stroke-width:1.0;"/><polygon fill="none" points="678.777,525.103,698.482,517.311,687.937,535.69,678.777,525.103" style="stroke:#181818;stroke-width:1.0;"/></g><!--reverse link Shape to Ellipse--><g id="link_Shape_Ellipse"><path codeLine="44" d="M806.09,530.435 C824.735,546.4601 844.609,563.5412 861.047,577.6695 " fill="none" id="Shape-backto-Ellipse" style="stroke:#181818;stroke-width:1.0;"/><polygon fill="none" points="801.425,535.656,790.82,517.311,810.551,525.039,801.425,535.656" style="stroke:#181818;stroke-width:1.0;"/></g><!--reverse link Document to Shape--><g id="link_Document_Shape"><path codeLine="45" d="M744.5,380.263 C744.5,399.216 744.5,419.137 744.5,435.833 " fill="none" id="Document-backto-Shape" style="stroke:#181818;stroke-width:1.0;"/><polygon fill="none" points="744.5,367.023,740.5,373.023,744.5,379.023,748.5,373.023,744.5,367.023" style="stroke:#181818;stroke-width:1.0;"/></g><!--link DocCtrl to Document--><g id="link_DocCtrl_Document"><path codeLine="46" d="M362.072,310.5 C394.908,310.5 429.924,310.5 464.931,310.5 " fill="none" id="DocCtrl-Document" style="stroke:#181818;stroke-width:1.0;"/><polygon fill="#000000" points="389.5,299.0664,380.4549,296.1275,380.4549,302.0053,389.5,299.0664" style="stroke:#000000;stroke-width:1.0;"/><text fill="#000000" font-family="sans-serif" font-size="13" lengthAdjust="spacing" textLength="53" x="393.5" y="303.5669">manage</text></g><!--link Tools to DocCtrl--><g id="link_Tools_DocCtrl"><path codeLine="47" d="M402.063,169.229 C366.734,192.007 328.534,216.636 294.15,238.805 " fill="none" id="Tools-to-DocCtrl" style="stroke:#181818;stroke-width:1.0;"/><polygon fill="none" points="283.128,245.911,290.3383,246.0216,293.2135,239.4085,286.0032,239.2979,283.128,245.911" style="stroke:#181818;stroke-width:1.0;"/></g><!--link Tools to Document--><g id="link_Tools_Document"><path codeLine="48" d="M605.82,169.229 C633.577,197.305 664.113,228.192 689.45,253.818 " fill="none" id="Tools-Document" style="stroke:#181818;stroke-width:1.0;"/><polygon fill="#000000" points="657.0153,211.122,652.746,202.6236,648.5661,206.7561,657.0153,211.122" style="stroke:#000000;stroke-width:1.0;"/><text fill="#000000" font-family="sans-serif" font-size="13" lengthAdjust="spacing" textLength="53" x="662.5" y="212.0669">manage</text></g><!--SRC=[bLDDJyCm3BtdL_XKhIhz0sNg1TXn1zW1JbFMMbkaD2c9Yv0A_vqqwSUqjMWxnRBVi_riXnyi6LuGl9ruZIrB_BigjB84bieiSt6XZX0fNc7C4ekqTTOIOXz31bzQbEoNiK9oQ-4L2-BgABliexrSOIA-I2bgsz5wwnRIiowQ2XMrTxIQyBAyrdtY1ijzJMRjOta4jdlZWLIYHCBxUTRn2WgyKZS7YL1hAqXezVu05vwFE9lF2fFadTRIjYnT08Pw61HUeuQ1vQvqi1uPItpErJAsTgTG6EI4msv6VS4zRNfM-EKKptiSW-TBVI8Zst-xvyJxUAF4PuC-xdNaGDt3XjuSwVee8l2db8MsyBlMXdPw8-PkDOAQqsdK8AeEl36wkWNkL7cPiFv9q-btd3lxcR917MZd3FlhHv6EX-wEkEAA7n5ovjL2ckfXOeDd3lq7]--></g></svg>